<mxfile host="app.diagrams.net" modified="2024-04-25T11:11:48.687Z" agent="Mozilla/5.0 (Windows NT 10.0; Win64; x64) AppleWebKit/537.36 (KHTML, like Gecko) Chrome/124.0.0.0 Safari/537.36" version="24.2.0" etag="Nc1n9brwt3aCDdfscLlz" type="github">
  <diagram name="Page-1" id="cKt5UwAWdkFp9lYghWq3">
    <mxGraphModel>
      <root>
        <mxCell id="0" />
        <mxCell id="1" parent="0" />
      </root>
    </mxGraphModel>
  </diagram>
</mxfile>
